<svg width="29" height="29" viewBox="0 0 29 29" fill="none" xmlns="http://www.w3.org/2000/svg">
<path d="M10.5989 8.20084H23.5989M10.5989 14.2008H23.5989M10.5989 20.2008H23.5989" stroke="#999999" stroke-linecap="round" stroke-linejoin="round"/>
<path d="M6.09888 8.20084C6.09888 8.47698 5.87502 8.70084 5.59888 8.70084C5.32273 8.70084 5.09888 8.47698 5.09888 8.20084C5.09888 7.92469 5.32273 7.70084 5.59888 7.70084C5.87502 7.70084 6.09888 7.92469 6.09888 8.20084ZM6.09888 14.2008C6.09888 14.477 5.87502 14.7008 5.59888 14.7008C5.32273 14.7008 5.09888 14.477 5.09888 14.2008C5.09888 13.9247 5.32273 13.7008 5.59888 13.7008C5.87502 13.7008 6.09888 13.9247 6.09888 14.2008ZM6.09888 20.2008C6.09888 20.477 5.87502 20.7008 5.59888 20.7008C5.32273 20.7008 5.09888 20.477 5.09888 20.2008C5.09888 19.9247 5.32273 19.7008 5.59888 19.7008C5.87502 19.7008 6.09888 19.9247 6.09888 20.2008Z" stroke="#999999"/>
</svg>
